G04 #@! TF.GenerationSoftware,KiCad,Pcbnew,5.1.9*
G04 #@! TF.CreationDate,2021-04-04T11:54:02+02:00*
G04 #@! TF.ProjectId,Robot volledig,526f626f-7420-4766-9f6c-6c656469672e,rev?*
G04 #@! TF.SameCoordinates,Original*
G04 #@! TF.FileFunction,Soldermask,Bot*
G04 #@! TF.FilePolarity,Negative*
%FSLAX46Y46*%
G04 Gerber Fmt 4.6, Leading zero omitted, Abs format (unit mm)*
G04 Created by KiCad (PCBNEW 5.1.9) date 2021-04-04 11:54:02*
%MOMM*%
%LPD*%
G01*
G04 APERTURE LIST*
%ADD10R,1.700000X1.700000*%
%ADD11O,1.700000X1.700000*%
%ADD12R,1.100000X4.600000*%
%ADD13R,10.800000X9.400000*%
%ADD14C,2.000000*%
%ADD15R,2.000000X2.000000*%
%ADD16C,2.600000*%
%ADD17R,2.700000X3.600000*%
%ADD18R,1.800000X1.800000*%
%ADD19O,1.800000X1.800000*%
%ADD20R,2.300000X3.500000*%
%ADD21R,0.900000X0.800000*%
G04 APERTURE END LIST*
D10*
X181102000Y-102362000D03*
D11*
X181102000Y-99822000D03*
X181102000Y-97282000D03*
X181102000Y-94742000D03*
X181102000Y-92202000D03*
X181102000Y-89662000D03*
D12*
X139036000Y-81936240D03*
X137336000Y-81936240D03*
X135636000Y-81936240D03*
X133936000Y-81936240D03*
X132236000Y-81936240D03*
D13*
X135636000Y-72786240D03*
D14*
X120496320Y-78282800D03*
D15*
X125496320Y-78282800D03*
D10*
X148341080Y-112400080D03*
D11*
X145801080Y-112400080D03*
X148341080Y-109860080D03*
X145801080Y-109860080D03*
X148341080Y-107320080D03*
X145801080Y-107320080D03*
G36*
G01*
X131715500Y-103424700D02*
X132190500Y-103424700D01*
G75*
G02*
X132428000Y-103662200I0J-237500D01*
G01*
X132428000Y-104262200D01*
G75*
G02*
X132190500Y-104499700I-237500J0D01*
G01*
X131715500Y-104499700D01*
G75*
G02*
X131478000Y-104262200I0J237500D01*
G01*
X131478000Y-103662200D01*
G75*
G02*
X131715500Y-103424700I237500J0D01*
G01*
G37*
G36*
G01*
X131715500Y-101699700D02*
X132190500Y-101699700D01*
G75*
G02*
X132428000Y-101937200I0J-237500D01*
G01*
X132428000Y-102537200D01*
G75*
G02*
X132190500Y-102774700I-237500J0D01*
G01*
X131715500Y-102774700D01*
G75*
G02*
X131478000Y-102537200I0J237500D01*
G01*
X131478000Y-101937200D01*
G75*
G02*
X131715500Y-101699700I237500J0D01*
G01*
G37*
G36*
G01*
X151351500Y-114145500D02*
X151351500Y-113670500D01*
G75*
G02*
X151589000Y-113433000I237500J0D01*
G01*
X152189000Y-113433000D01*
G75*
G02*
X152426500Y-113670500I0J-237500D01*
G01*
X152426500Y-114145500D01*
G75*
G02*
X152189000Y-114383000I-237500J0D01*
G01*
X151589000Y-114383000D01*
G75*
G02*
X151351500Y-114145500I0J237500D01*
G01*
G37*
G36*
G01*
X149626500Y-114145500D02*
X149626500Y-113670500D01*
G75*
G02*
X149864000Y-113433000I237500J0D01*
G01*
X150464000Y-113433000D01*
G75*
G02*
X150701500Y-113670500I0J-237500D01*
G01*
X150701500Y-114145500D01*
G75*
G02*
X150464000Y-114383000I-237500J0D01*
G01*
X149864000Y-114383000D01*
G75*
G02*
X149626500Y-114145500I0J237500D01*
G01*
G37*
G36*
G01*
X153864300Y-94532500D02*
X154339300Y-94532500D01*
G75*
G02*
X154576800Y-94770000I0J-237500D01*
G01*
X154576800Y-95370000D01*
G75*
G02*
X154339300Y-95607500I-237500J0D01*
G01*
X153864300Y-95607500D01*
G75*
G02*
X153626800Y-95370000I0J237500D01*
G01*
X153626800Y-94770000D01*
G75*
G02*
X153864300Y-94532500I237500J0D01*
G01*
G37*
G36*
G01*
X153864300Y-92807500D02*
X154339300Y-92807500D01*
G75*
G02*
X154576800Y-93045000I0J-237500D01*
G01*
X154576800Y-93645000D01*
G75*
G02*
X154339300Y-93882500I-237500J0D01*
G01*
X153864300Y-93882500D01*
G75*
G02*
X153626800Y-93645000I0J237500D01*
G01*
X153626800Y-93045000D01*
G75*
G02*
X153864300Y-92807500I237500J0D01*
G01*
G37*
G36*
G01*
X143747500Y-95533500D02*
X143272500Y-95533500D01*
G75*
G02*
X143035000Y-95296000I0J237500D01*
G01*
X143035000Y-94696000D01*
G75*
G02*
X143272500Y-94458500I237500J0D01*
G01*
X143747500Y-94458500D01*
G75*
G02*
X143985000Y-94696000I0J-237500D01*
G01*
X143985000Y-95296000D01*
G75*
G02*
X143747500Y-95533500I-237500J0D01*
G01*
G37*
G36*
G01*
X143747500Y-97258500D02*
X143272500Y-97258500D01*
G75*
G02*
X143035000Y-97021000I0J237500D01*
G01*
X143035000Y-96421000D01*
G75*
G02*
X143272500Y-96183500I237500J0D01*
G01*
X143747500Y-96183500D01*
G75*
G02*
X143985000Y-96421000I0J-237500D01*
G01*
X143985000Y-97021000D01*
G75*
G02*
X143747500Y-97258500I-237500J0D01*
G01*
G37*
D15*
X146558000Y-97536000D03*
D14*
X146558000Y-102536000D03*
X146430000Y-91900000D03*
D15*
X146430000Y-86900000D03*
X125500000Y-92830000D03*
D14*
X120500000Y-92830000D03*
D16*
X128193800Y-100375720D03*
X128270000Y-104902000D03*
D10*
X139278360Y-97607120D03*
D11*
X136738360Y-97607120D03*
D10*
X190246000Y-77089000D03*
D11*
X190246000Y-79629000D03*
X190246000Y-82169000D03*
X190246000Y-84709000D03*
X182499000Y-84836000D03*
X182499000Y-82296000D03*
X182499000Y-79756000D03*
D10*
X182499000Y-77216000D03*
D11*
X160538160Y-112857280D03*
D10*
X160538160Y-115397280D03*
X134874000Y-114630200D03*
D11*
X134874000Y-117170200D03*
D17*
X139150000Y-91200000D03*
X130850000Y-91200000D03*
X166110560Y-90637360D03*
X157810560Y-90637360D03*
G36*
G01*
X197657540Y-107641380D02*
X197657540Y-108116380D01*
G75*
G02*
X197420040Y-108353880I-237500J0D01*
G01*
X196920040Y-108353880D01*
G75*
G02*
X196682540Y-108116380I0J237500D01*
G01*
X196682540Y-107641380D01*
G75*
G02*
X196920040Y-107403880I237500J0D01*
G01*
X197420040Y-107403880D01*
G75*
G02*
X197657540Y-107641380I0J-237500D01*
G01*
G37*
G36*
G01*
X199482540Y-107641380D02*
X199482540Y-108116380D01*
G75*
G02*
X199245040Y-108353880I-237500J0D01*
G01*
X198745040Y-108353880D01*
G75*
G02*
X198507540Y-108116380I0J237500D01*
G01*
X198507540Y-107641380D01*
G75*
G02*
X198745040Y-107403880I237500J0D01*
G01*
X199245040Y-107403880D01*
G75*
G02*
X199482540Y-107641380I0J-237500D01*
G01*
G37*
G36*
G01*
X199520000Y-116348500D02*
X199520000Y-116823500D01*
G75*
G02*
X199282500Y-117061000I-237500J0D01*
G01*
X198782500Y-117061000D01*
G75*
G02*
X198545000Y-116823500I0J237500D01*
G01*
X198545000Y-116348500D01*
G75*
G02*
X198782500Y-116111000I237500J0D01*
G01*
X199282500Y-116111000D01*
G75*
G02*
X199520000Y-116348500I0J-237500D01*
G01*
G37*
G36*
G01*
X197695000Y-116348500D02*
X197695000Y-116823500D01*
G75*
G02*
X197457500Y-117061000I-237500J0D01*
G01*
X196957500Y-117061000D01*
G75*
G02*
X196720000Y-116823500I0J237500D01*
G01*
X196720000Y-116348500D01*
G75*
G02*
X196957500Y-116111000I237500J0D01*
G01*
X197457500Y-116111000D01*
G75*
G02*
X197695000Y-116348500I0J-237500D01*
G01*
G37*
G36*
G01*
X197569900Y-121494540D02*
X197569900Y-121969540D01*
G75*
G02*
X197332400Y-122207040I-237500J0D01*
G01*
X196832400Y-122207040D01*
G75*
G02*
X196594900Y-121969540I0J237500D01*
G01*
X196594900Y-121494540D01*
G75*
G02*
X196832400Y-121257040I237500J0D01*
G01*
X197332400Y-121257040D01*
G75*
G02*
X197569900Y-121494540I0J-237500D01*
G01*
G37*
G36*
G01*
X199394900Y-121494540D02*
X199394900Y-121969540D01*
G75*
G02*
X199157400Y-122207040I-237500J0D01*
G01*
X198657400Y-122207040D01*
G75*
G02*
X198419900Y-121969540I0J237500D01*
G01*
X198419900Y-121494540D01*
G75*
G02*
X198657400Y-121257040I237500J0D01*
G01*
X199157400Y-121257040D01*
G75*
G02*
X199394900Y-121494540I0J-237500D01*
G01*
G37*
G36*
G01*
X127937500Y-83175000D02*
X127462500Y-83175000D01*
G75*
G02*
X127225000Y-82937500I0J237500D01*
G01*
X127225000Y-82437500D01*
G75*
G02*
X127462500Y-82200000I237500J0D01*
G01*
X127937500Y-82200000D01*
G75*
G02*
X128175000Y-82437500I0J-237500D01*
G01*
X128175000Y-82937500D01*
G75*
G02*
X127937500Y-83175000I-237500J0D01*
G01*
G37*
G36*
G01*
X127937500Y-85000000D02*
X127462500Y-85000000D01*
G75*
G02*
X127225000Y-84762500I0J237500D01*
G01*
X127225000Y-84262500D01*
G75*
G02*
X127462500Y-84025000I237500J0D01*
G01*
X127937500Y-84025000D01*
G75*
G02*
X128175000Y-84262500I0J-237500D01*
G01*
X128175000Y-84762500D01*
G75*
G02*
X127937500Y-85000000I-237500J0D01*
G01*
G37*
G36*
G01*
X128982460Y-82203460D02*
X129457460Y-82203460D01*
G75*
G02*
X129694960Y-82440960I0J-237500D01*
G01*
X129694960Y-82940960D01*
G75*
G02*
X129457460Y-83178460I-237500J0D01*
G01*
X128982460Y-83178460D01*
G75*
G02*
X128744960Y-82940960I0J237500D01*
G01*
X128744960Y-82440960D01*
G75*
G02*
X128982460Y-82203460I237500J0D01*
G01*
G37*
G36*
G01*
X128982460Y-84028460D02*
X129457460Y-84028460D01*
G75*
G02*
X129694960Y-84265960I0J-237500D01*
G01*
X129694960Y-84765960D01*
G75*
G02*
X129457460Y-85003460I-237500J0D01*
G01*
X128982460Y-85003460D01*
G75*
G02*
X128744960Y-84765960I0J237500D01*
G01*
X128744960Y-84265960D01*
G75*
G02*
X128982460Y-84028460I237500J0D01*
G01*
G37*
G36*
G01*
X160544500Y-69917500D02*
X161019500Y-69917500D01*
G75*
G02*
X161257000Y-70155000I0J-237500D01*
G01*
X161257000Y-70655000D01*
G75*
G02*
X161019500Y-70892500I-237500J0D01*
G01*
X160544500Y-70892500D01*
G75*
G02*
X160307000Y-70655000I0J237500D01*
G01*
X160307000Y-70155000D01*
G75*
G02*
X160544500Y-69917500I237500J0D01*
G01*
G37*
G36*
G01*
X160544500Y-68092500D02*
X161019500Y-68092500D01*
G75*
G02*
X161257000Y-68330000I0J-237500D01*
G01*
X161257000Y-68830000D01*
G75*
G02*
X161019500Y-69067500I-237500J0D01*
G01*
X160544500Y-69067500D01*
G75*
G02*
X160307000Y-68830000I0J237500D01*
G01*
X160307000Y-68330000D01*
G75*
G02*
X160544500Y-68092500I237500J0D01*
G01*
G37*
G36*
G01*
X160544500Y-71498000D02*
X161019500Y-71498000D01*
G75*
G02*
X161257000Y-71735500I0J-237500D01*
G01*
X161257000Y-72235500D01*
G75*
G02*
X161019500Y-72473000I-237500J0D01*
G01*
X160544500Y-72473000D01*
G75*
G02*
X160307000Y-72235500I0J237500D01*
G01*
X160307000Y-71735500D01*
G75*
G02*
X160544500Y-71498000I237500J0D01*
G01*
G37*
G36*
G01*
X160544500Y-73323000D02*
X161019500Y-73323000D01*
G75*
G02*
X161257000Y-73560500I0J-237500D01*
G01*
X161257000Y-74060500D01*
G75*
G02*
X161019500Y-74298000I-237500J0D01*
G01*
X160544500Y-74298000D01*
G75*
G02*
X160307000Y-74060500I0J237500D01*
G01*
X160307000Y-73560500D01*
G75*
G02*
X160544500Y-73323000I237500J0D01*
G01*
G37*
D13*
X153651000Y-72163240D03*
D12*
X150251000Y-81313240D03*
X151951000Y-81313240D03*
X153651000Y-81313240D03*
X155351000Y-81313240D03*
X157051000Y-81313240D03*
D18*
X156718000Y-116840000D03*
D19*
X155448000Y-121920000D03*
X154178000Y-116840000D03*
X152908000Y-121920000D03*
X151638000Y-116840000D03*
X150368000Y-121920000D03*
X149098000Y-116840000D03*
X147828000Y-121920000D03*
X146558000Y-116840000D03*
X145288000Y-121920000D03*
X144018000Y-116840000D03*
X142748000Y-121920000D03*
X141478000Y-116840000D03*
X140208000Y-121920000D03*
X138938000Y-116840000D03*
D20*
X144470120Y-78298040D03*
X144470120Y-72898040D03*
X161700000Y-77700000D03*
X161700000Y-83100000D03*
D21*
X197136000Y-119192000D03*
X199136000Y-120142000D03*
X199136000Y-118242000D03*
X197119240Y-110510320D03*
X199119240Y-111460320D03*
X199119240Y-109560320D03*
X199120000Y-113096000D03*
X199120000Y-114996000D03*
X197120000Y-114046000D03*
D10*
X170550840Y-98988880D03*
D11*
X170550840Y-101528880D03*
X170550840Y-104068880D03*
D10*
X166878000Y-104140000D03*
D11*
X164338000Y-104140000D03*
X166878000Y-101600000D03*
X164338000Y-101600000D03*
X166878000Y-99060000D03*
X164338000Y-99060000D03*
D10*
X188468000Y-121412000D03*
D11*
X185928000Y-121412000D03*
X188468000Y-118872000D03*
X185928000Y-118872000D03*
X188468000Y-116332000D03*
X185928000Y-116332000D03*
G36*
G01*
X141715500Y-84304500D02*
X141240500Y-84304500D01*
G75*
G02*
X141003000Y-84067000I0J237500D01*
G01*
X141003000Y-83467000D01*
G75*
G02*
X141240500Y-83229500I237500J0D01*
G01*
X141715500Y-83229500D01*
G75*
G02*
X141953000Y-83467000I0J-237500D01*
G01*
X141953000Y-84067000D01*
G75*
G02*
X141715500Y-84304500I-237500J0D01*
G01*
G37*
G36*
G01*
X141715500Y-82579500D02*
X141240500Y-82579500D01*
G75*
G02*
X141003000Y-82342000I0J237500D01*
G01*
X141003000Y-81742000D01*
G75*
G02*
X141240500Y-81504500I237500J0D01*
G01*
X141715500Y-81504500D01*
G75*
G02*
X141953000Y-81742000I0J-237500D01*
G01*
X141953000Y-82342000D01*
G75*
G02*
X141715500Y-82579500I-237500J0D01*
G01*
G37*
G36*
G01*
X159020500Y-82266500D02*
X159495500Y-82266500D01*
G75*
G02*
X159733000Y-82504000I0J-237500D01*
G01*
X159733000Y-83104000D01*
G75*
G02*
X159495500Y-83341500I-237500J0D01*
G01*
X159020500Y-83341500D01*
G75*
G02*
X158783000Y-83104000I0J237500D01*
G01*
X158783000Y-82504000D01*
G75*
G02*
X159020500Y-82266500I237500J0D01*
G01*
G37*
G36*
G01*
X159020500Y-80541500D02*
X159495500Y-80541500D01*
G75*
G02*
X159733000Y-80779000I0J-237500D01*
G01*
X159733000Y-81379000D01*
G75*
G02*
X159495500Y-81616500I-237500J0D01*
G01*
X159020500Y-81616500D01*
G75*
G02*
X158783000Y-81379000I0J237500D01*
G01*
X158783000Y-80779000D01*
G75*
G02*
X159020500Y-80541500I237500J0D01*
G01*
G37*
D10*
X193548000Y-110998000D03*
D11*
X193548000Y-113538000D03*
X193548000Y-116078000D03*
X193548000Y-118618000D03*
D10*
X175514000Y-69342000D03*
D11*
X175514000Y-71882000D03*
X175514000Y-74422000D03*
X175514000Y-76962000D03*
X175514000Y-79502000D03*
X175514000Y-82042000D03*
X175514000Y-84582000D03*
X175514000Y-87122000D03*
X175514000Y-89662000D03*
X175514000Y-92202000D03*
X175514000Y-94742000D03*
X175514000Y-97282000D03*
X175514000Y-99822000D03*
X175514000Y-102362000D03*
X175514000Y-104902000D03*
X175514000Y-107442000D03*
X175514000Y-109982000D03*
X175514000Y-112522000D03*
X175514000Y-115062000D03*
X175514000Y-117602000D03*
X175514000Y-120142000D03*
X175514000Y-122682000D03*
X202946000Y-121920000D03*
X202946000Y-119380000D03*
X202946000Y-116840000D03*
X202946000Y-114300000D03*
X202946000Y-111760000D03*
X202946000Y-109220000D03*
X202946000Y-106680000D03*
X202946000Y-104140000D03*
X202946000Y-101600000D03*
X202946000Y-99060000D03*
X202946000Y-96520000D03*
X202946000Y-93980000D03*
X202946000Y-91440000D03*
X202946000Y-88900000D03*
X202946000Y-86360000D03*
X202946000Y-83820000D03*
X202946000Y-81280000D03*
X202946000Y-78740000D03*
X202946000Y-76200000D03*
X202946000Y-73660000D03*
X202946000Y-71120000D03*
D10*
X202946000Y-68580000D03*
M02*
