M48
; DRILL file {KiCad 5.1.9} date Sun Apr  4 11:54:41 2021
; FORMAT={-:-/ absolute / inch / decimal}
; #@! TF.CreationDate,2021-04-04T11:54:41+02:00
; #@! TF.GenerationSoftware,Kicad,Pcbnew,5.1.9
; #@! TF.FileFunction,Plated,1,2,PTH
FMAT,2
INCH
T1C0.0118
T2C0.0157
T3C0.0394
T4C0.0551
%
G90
G05
T1
X7.4878Y-2.8046
X7.499Y-2.8328
X7.5166Y-2.7896
X7.5338Y-2.8218
T2
X5.06Y-3.4
X5.13Y-3.18
X5.17Y-3.02
X5.18Y-2.71
X5.22Y-3.02
X5.23Y-2.71
X5.27Y-3.02
X5.28Y-2.71
X5.32Y-3.02
X5.33Y-2.71
X5.37Y-3.02
X5.38Y-2.71
X5.42Y-3.02
X5.43Y-2.71
X5.47Y-3.02
X5.4783Y-3.5906
X5.48Y-2.71
X5.8661Y-3.2008
X5.87Y-3.67
X5.89Y-2.69
X5.89Y-2.99
X5.91Y-3.71
X5.93Y-3.65
X5.94Y-2.69
X5.94Y-2.99
X5.97Y-3.7
X5.9823Y-3.2013
X5.99Y-2.69
X5.99Y-2.99
X5.99Y-4.42
X6.02Y-4.46
X6.03Y-4.39
X6.04Y-2.69
X6.04Y-2.99
X6.06Y-4.42
X6.09Y-2.69
X6.09Y-2.99
X6.1Y-4.38
X6.14Y-2.69
X6.16Y-4.38
X6.19Y-2.69
X6.2Y-4.38
X6.28Y-4.18
X6.31Y-4.22
X6.32Y-4.15
X6.33Y-2.91
X6.34Y-4.11
X6.36Y-4.21
X6.37Y-2.8
X6.37Y-4.15
X6.4Y-4.18
X6.5364Y-2.9203
X6.5364Y-2.9833
X6.5364Y-3.0472
X6.6063Y-2.9222
X6.6063Y-3.0492
X6.6093Y-2.9843
X6.6567Y-4.787
X6.6781Y-2.9232
X6.6791Y-2.9852
X6.6791Y-3.0502
X6.6937Y-4.8154
X6.7307Y-4.7854
X6.78Y-3.28
X6.78Y-4.34
X6.94Y-4.925
X7.09Y-4.91
X7.13Y-4.95
X7.17Y-4.86
X7.17Y-4.91
X7.1791Y-2.6309
X7.22Y-3.95
X7.23Y-4.86
X7.23Y-4.91
X7.2303Y-2.6299
X7.24Y-4.33
X7.2681Y-3.7419
X7.27Y-4.0
X7.2756Y-2.6299
X7.276Y-3.926
X7.3346Y-2.6289
X7.34Y-3.93
X7.4006Y-2.7657
X7.4345Y-2.7997
X7.4705Y-2.7726
X7.48Y-3.96
X7.5Y-3.92
X7.51Y-3.845
X7.535Y-3.965
X7.5429Y-3.8725
X7.5442Y-2.8864
X7.5527Y-2.9277
X7.5782Y-3.9328
X7.6Y-3.9
X7.6345Y-3.876
X7.638Y-3.917
X7.64Y-4.0
X7.678Y-3.933
X7.6805Y-3.8255
X7.699Y-4.0246
X7.705Y-3.12
X7.71Y-3.52
T3
X4.7439Y-3.082
X4.7441Y-3.6547
X4.9408Y-3.082
X4.9409Y-3.6547
X5.31Y-4.513
X5.31Y-4.613
X5.3834Y-3.8428
X5.47Y-4.6
X5.4834Y-3.8428
X5.52Y-4.8
X5.57Y-4.6
X5.62Y-4.8
X5.67Y-4.6
X5.72Y-4.8
X5.7402Y-4.2252
X5.7402Y-4.3252
X5.7402Y-4.4252
X5.765Y-3.4213
X5.765Y-3.6181
X5.77Y-3.84
X5.77Y-4.0369
X5.77Y-4.6
X5.82Y-4.8
X5.8402Y-4.2252
X5.8402Y-4.3252
X5.8402Y-4.4252
X5.87Y-4.6
X5.92Y-4.8
X5.97Y-4.6
X6.02Y-4.8
X6.07Y-4.6
X6.12Y-4.8
X6.17Y-4.6
X6.3204Y-4.4432
X6.3204Y-4.5432
X6.47Y-3.9
X6.47Y-4.0
X6.47Y-4.1
X6.57Y-3.9
X6.57Y-4.0
X6.57Y-4.1
X6.7146Y-3.8972
X6.7146Y-3.9972
X6.7146Y-4.0972
X6.91Y-2.73
X6.91Y-2.83
X6.91Y-2.93
X6.91Y-3.03
X6.91Y-3.13
X6.91Y-3.23
X6.91Y-3.33
X6.91Y-3.43
X6.91Y-3.53
X6.91Y-3.63
X6.91Y-3.73
X6.91Y-3.83
X6.91Y-3.93
X6.91Y-4.03
X6.91Y-4.13
X6.91Y-4.23
X6.91Y-4.33
X6.91Y-4.43
X6.91Y-4.53
X6.91Y-4.63
X6.91Y-4.73
X6.91Y-4.83
X7.13Y-3.53
X7.13Y-3.63
X7.13Y-3.73
X7.13Y-3.83
X7.13Y-3.93
X7.13Y-4.03
X7.185Y-3.04
X7.185Y-3.14
X7.185Y-3.24
X7.185Y-3.34
X7.32Y-4.58
X7.32Y-4.68
X7.32Y-4.78
X7.42Y-4.58
X7.42Y-4.68
X7.42Y-4.78
X7.49Y-3.035
X7.49Y-3.135
X7.49Y-3.235
X7.49Y-3.335
X7.62Y-4.37
X7.62Y-4.47
X7.62Y-4.57
X7.62Y-4.67
X7.99Y-2.7
X7.99Y-2.8
X7.99Y-2.9
X7.99Y-3.0
X7.99Y-3.1
X7.99Y-3.2
X7.99Y-3.3
X7.99Y-3.4
X7.99Y-3.5
X7.99Y-3.6
X7.99Y-3.7
X7.99Y-3.8
X7.99Y-3.9
X7.99Y-4.0
X7.99Y-4.1
X7.99Y-4.2
X7.99Y-4.3
X7.99Y-4.4
X7.99Y-4.5
X7.99Y-4.6
X7.99Y-4.7
X7.99Y-4.8
T4
X5.047Y-3.9518
X5.05Y-4.13
T0
M30
